<?xml version="1.0" standalone="no"?>
<!DOCTYPE svg PUBLIC "-//W3C//DTD SVG 20010904//EN"
 "http://www.w3.org/TR/2001/REC-SVG-20010904/DTD/svg10.dtd">
<svg version="1.0" xmlns="http://www.w3.org/2000/svg"
 width="512.000000pt" height="512.000000pt" viewBox="0 0 512.000000 512.000000"
 preserveAspectRatio="xMidYMid meet">

<g transform="translate(0.000000,512.000000) scale(0.100000,-0.100000)"
fill="#000000" stroke="none">
<path d="M1415 4150 c-300 -60 -496 -346 -445 -649 8 -45 27 -104 53 -154 38
-78 58 -100 391 -434 l350 -353 -350 -352 c-333 -335 -353 -357 -391 -435
-181 -365 60 -784 467 -810 98 -6 217 14 312 52 138 56 163 79 711 624 l527
525 0 -390 c0 -318 3 -401 15 -449 45 -172 179 -305 352 -350 67 -17 281 -20
364 -5 183 34 344 195 379 379 14 74 14 2348 0 2422 -35 184 -196 345 -379
379 -70 13 -273 13 -342 0 -131 -25 -266 -124 -328 -239 -58 -110 -61 -136
-61 -565 l0 -391 -522 522 c-354 353 -543 534 -585 561 -153 98 -362 143 -518
112z m197 -321 c130 -28 128 -26 773 -670 l600 -599 -570 -571 c-313 -314
-596 -591 -628 -614 -101 -77 -238 -111 -332 -85 -101 28 -182 142 -173 244 3
28 13 69 23 91 12 26 155 177 421 445 221 223 407 415 413 427 14 28 14 98 0
126 -6 12 -192 204 -413 427 -266 268 -409 419 -421 445 -31 66 -31 134 -2
197 54 120 162 168 309 137z m2154 -15 c15 -11 37 -33 48 -48 21 -27 21 -31
21 -1206 0 -1175 0 -1179 -21 -1206 -47 -64 -63 -69 -214 -69 -151 0 -167 5
-214 69 -21 27 -21 34 -24 1179 -1 634 0 1166 3 1184 3 18 18 47 32 64 44 52
73 59 215 57 110 -3 130 -6 154 -24z"/>
</g>
</svg>
