<?xml version="1.0" standalone="no"?>
<!DOCTYPE svg PUBLIC "-//W3C//DTD SVG 20010904//EN"
 "http://www.w3.org/TR/2001/REC-SVG-20010904/DTD/svg10.dtd">
<svg version="1.0" xmlns="http://www.w3.org/2000/svg"
 width="512.000000pt" height="512.000000pt" viewBox="0 0 512.000000 512.000000"
 preserveAspectRatio="xMidYMid meet">

<g transform="translate(0.000000,512.000000) scale(0.100000,-0.100000)"
fill="#000000" stroke="none">
<path d="M1341 4149 c-122 -24 -260 -127 -320 -238 -64 -120 -61 -58 -61
-1351 0 -1024 2 -1183 15 -1235 45 -172 179 -305 352 -350 67 -18 282 -20 364
-5 184 35 345 196 379 379 6 30 10 224 10 435 l0 381 523 -522 c539 -538 580
-574 710 -626 256 -103 515 -61 683 110 171 174 211 426 101 646 -38 78 -58
100 -391 435 l-350 352 350 353 c369 371 384 389 430 527 26 76 26 244 0 320
-79 235 -266 381 -506 397 -146 10 -311 -35 -443 -119 -42 -27 -231 -208 -584
-561 l-523 -522 0 381 c0 218 -4 404 -10 435 -35 184 -196 345 -379 379 -64
12 -288 11 -350 -1z m345 -335 c15 -11 37 -33 48 -48 21 -27 21 -31 21 -1206
0 -1175 0 -1179 -21 -1206 -47 -64 -63 -69 -214 -69 -151 0 -167 5 -214 69
-21 27 -21 34 -24 1179 -1 634 0 1166 3 1184 3 18 18 47 32 64 44 52 73 59
215 57 110 -3 130 -6 154 -24z m1985 14 c51 -15 114 -69 141 -122 29 -55 31
-155 4 -211 -12 -25 -165 -187 -422 -445 -221 -223 -407 -415 -413 -427 -6
-12 -11 -40 -11 -63 0 -23 5 -51 11 -63 6 -12 192 -204 413 -427 257 -258 410
-420 422 -445 27 -56 25 -156 -4 -211 -73 -140 -236 -172 -417 -82 -51 26
-146 115 -660 629 l-600 599 600 599 c634 633 638 637 760 667 65 16 128 17
176 2z"/>
</g>
</svg>
