<svg version="1.1" id="Layer_1" xmlns="http://www.w3.org/2000/svg" xmlns:xlink="http://www.w3.org/1999/xlink" x="0px" y="0px"
	 width="100%" viewBox="0 0 768 187" enable-background="new 0 0 768 187" xml:space="preserve">
<path fill="#FEFEFE" opacity="0000" stroke="none" 
	d="
M769.000000,71.000000 
	C769.000000,109.978401 769.000000,148.956802 769.000000,188.000000 
	C547.977356,188.000000 326.954712,188.000000 105.665543,187.640213 
	C108.152908,186.859818 110.921127,186.516052 113.658546,186.006775 
	C143.281570,180.495728 164.815170,163.734238 178.955795,137.629211 
	C189.190018,118.735825 192.075500,98.403397 188.064148,77.087105 
	C182.391464,46.942535 165.679413,24.906044 138.917496,10.706319 
	C130.576523,6.280651 121.007072,4.170273 112.000000,1.000001 
	C331.000000,1.000000 550.000000,1.000000 769.000000,1.000000 
	C769.000000,21.092014 769.000000,41.079964 768.619019,61.578426 
	C765.583374,60.239063 762.589233,58.678650 759.829895,61.179863 
	C758.074158,62.771297 756.054932,65.586433 756.346436,67.522697 
	C756.680054,69.738129 759.160034,72.785919 761.227295,73.275131 
	C763.510803,73.815536 766.383789,71.865379 769.000000,71.000000 
M380.043549,83.779785 
	C375.639374,94.375183 375.844421,105.410934 378.263550,116.203087 
	C381.363861,130.034241 392.686157,136.414780 406.500793,132.949829 
	C409.371521,132.229828 412.039703,130.702332 414.999634,129.463959 
	C414.999634,132.091187 414.949219,134.421844 415.007874,136.749741 
	C415.373077,151.245071 412.111633,148.677307 427.879242,148.964661 
	C428.045685,148.967697 428.279327,149.036072 428.368683,148.952789 
	C429.589355,147.815384 431.831940,146.665604 431.842010,145.501709 
	C432.047180,121.857712 432.017456,98.211418 431.929199,74.565979 
	C431.925049,73.452522 431.240540,71.846786 430.363403,71.322189 
	C427.478638,69.596840 417.138306,71.517967 414.909058,73.909805 
	C405.104431,66.652702 387.414856,68.256180 380.043549,83.779785 
M238.000092,115.535233 
	C238.000092,112.438286 238.000092,109.341339 238.000092,106.537636 
	C244.232590,105.985512 249.881531,105.954895 255.336273,104.910233 
	C269.439423,102.209267 276.181458,94.127007 276.824921,80.305984 
	C277.443695,67.014481 270.885376,57.531082 257.702332,55.235126 
	C247.068802,53.383190 236.054932,53.777733 225.227341,52.946819 
	C220.916962,52.616043 219.894485,54.344818 219.922485,58.394768 
	C220.083527,81.682953 219.998993,104.972832 220.007507,128.262131 
	C220.007919,129.377945 220.100800,130.493713 220.168060,132.000076 
	C223.303391,132.000076 226.092896,132.000076 228.882401,132.000076 
	C231.819962,132.000076 234.757507,132.000076 238.000092,132.000076 
	C238.000092,126.447227 238.000092,121.484573 238.000092,115.535233 
M748.119385,131.948807 
	C761.846313,124.709305 759.473877,125.324867 751.606323,115.281258 
	C751.520203,115.171303 751.313965,115.155540 751.163757,115.095818 
	C733.957214,123.112976 725.923950,121.134254 724.189819,108.011353 
	C735.996887,108.011353 747.754639,108.011353 759.976501,108.011353 
	C759.976501,102.252007 760.802856,96.777573 759.736145,91.700912 
	C758.737732,86.949547 756.310913,82.214615 753.489075,78.190132 
	C747.890686,70.205711 739.264221,69.366882 730.355774,70.003746 
	C723.160095,70.518173 717.423889,73.496071 712.877502,79.308266 
	C706.056396,88.028427 705.150085,98.098129 706.180115,108.345726 
	C706.951660,116.022049 709.653687,123.186783 716.441284,128.155594 
	C726.093506,135.221390 736.443115,135.385178 748.119385,131.948807 
M524.923706,133.992157 
	C535.452698,134.534683 545.187805,132.741913 552.958923,124.586906 
	C550.446533,121.215988 548.038574,117.985107 545.699646,114.846893 
	C527.687256,123.325737 519.896912,121.308609 518.578918,107.947502 
	C530.220459,107.947502 541.838196,107.947502 554.919434,107.947502 
	C554.603149,102.858383 554.469788,98.091393 553.985168,93.360382 
	C551.679016,70.846748 530.218567,64.984184 514.178711,73.036018 
	C505.144806,77.570915 501.627899,86.224434 500.423187,95.488197 
	C498.951019,106.808990 499.728058,118.222855 509.139191,126.312225 
	C513.251343,129.846848 519.015869,131.459106 524.923706,133.992157 
M475.115112,72.983078 
	C475.076721,74.813248 475.006927,76.643379 475.005127,78.473587 
	C474.994568,89.299126 475.062775,100.125214 474.972321,110.950012 
	C474.929077,116.125282 470.615753,119.916901 465.373077,120.035065 
	C458.871918,120.181587 460.035736,115.564804 460.015503,111.714859 
	C459.967316,102.555031 460.000000,93.394775 460.000000,84.234688 
	C460.000000,70.686600 460.000854,70.832123 446.633331,70.910622 
	C442.683655,70.933823 441.900757,72.535500 441.953003,76.007469 
	C442.108398,86.331039 441.911560,96.659790 442.054382,106.983727 
	C442.115570,111.408745 442.300812,115.895851 443.098297,120.231773 
	C444.262726,126.562637 447.640289,131.256073 454.295319,133.143341 
	C461.424561,135.165100 467.843231,134.005569 473.819092,129.732193 
	C474.674713,129.120300 475.760925,128.830841 476.805450,128.363037 
	C477.002289,129.733002 477.156677,130.807571 477.294403,131.766144 
	C482.659454,131.766144 487.602203,131.766144 492.991364,131.766144 
	C492.991364,112.429253 493.021271,93.322594 492.910522,74.216766 
	C492.904449,73.170670 491.708832,71.219910 491.097778,71.232109 
	C485.899811,71.335945 480.709015,71.797302 475.115112,72.983078 
M289.259064,85.898491 
	C292.891022,85.021927 296.516449,84.117119 300.156311,83.274757 
	C307.468109,81.582626 312.053467,86.346695 310.228638,93.999939 
	C307.138397,93.999939 303.981445,93.838463 300.845734,94.028145 
	C287.912994,94.810463 276.456421,100.215012 277.903687,116.977715 
	C278.558167,124.558174 283.449219,131.042267 290.754639,133.048828 
	C299.871063,135.552811 307.862183,133.356827 315.005219,127.865349 
	C329.015991,137.918900 330.572235,135.724487 331.924438,122.529587 
	C330.174530,119.453377 328.336273,116.218559 328.149445,112.891006 
	C327.693024,104.761589 328.005096,96.589279 327.999207,88.434235 
	C327.992889,79.663315 323.626495,73.300255 314.992737,71.051186 
	C305.406891,68.554108 295.722748,69.613335 286.331024,72.454590 
	C284.630402,72.969070 282.021729,76.146217 282.253143,76.496994 
	C284.326263,79.639359 281.887268,85.882240 289.259064,85.898491 
M564.604553,130.072784 
	C574.333862,136.970703 587.764709,134.500381 594.935425,126.984512 
	C596.164612,128.351852 597.254822,129.869293 598.637756,131.041199 
	C601.748779,133.677444 608.030457,134.693283 609.478210,132.968948 
	C611.806274,130.196152 611.562500,122.998558 609.505127,119.804977 
	C608.511719,118.263008 608.097412,116.113266 608.064575,114.227516 
	C607.916992,105.741135 608.231567,97.242615 607.934387,88.764076 
	C607.641418,80.406448 604.200073,73.563980 595.184326,71.197739 
	C584.598267,68.419312 573.996460,69.610176 563.756470,73.285339 
	C562.800232,73.628548 562.069580,75.990959 562.117615,77.385384 
	C562.176086,79.081581 563.445679,80.704010 563.706848,82.431618 
	C564.330872,86.558281 566.763794,86.395493 569.866516,85.530151 
	C573.301636,84.572136 576.773926,83.677383 580.284973,83.076202 
	C587.625793,81.819275 591.724121,86.185150 590.374573,94.000557 
	C586.464172,94.000557 582.460449,93.684608 578.524048,94.064957 
	C569.765015,94.911293 562.159973,98.091988 558.661499,106.915779 
	C555.237000,115.552811 557.156067,123.233330 564.604553,130.072784 
M685.998169,114.516083 
	C685.630615,118.266930 683.530579,119.830032 679.798950,120.058777 
	C674.333557,120.393799 669.434937,119.158325 664.708618,116.399513 
	C663.358154,115.611282 660.550110,115.361023 659.610291,116.203094 
	C656.994202,118.547203 655.007935,121.594246 652.836182,124.285339 
	C661.135864,134.868408 682.594666,136.656876 694.024475,130.516296 
	C707.468567,123.293533 707.311523,104.656433 695.359192,98.857773 
	C689.846130,96.183083 683.839844,94.533218 678.284729,91.932602 
	C676.212158,90.962318 674.787598,88.607803 673.067566,86.884468 
	C675.536987,85.589958 677.942139,84.138847 680.509949,83.083824 
	C681.439392,82.701958 682.830139,83.065514 683.886963,83.438522 
	C687.690857,84.781113 691.442139,86.272858 695.812744,87.936432 
	C697.136230,85.971207 698.398743,83.462418 700.244324,81.502869 
	C703.099670,78.471230 701.872437,76.888062 698.988586,74.944221 
	C689.460999,68.522240 678.919739,68.332497 668.702026,71.397392 
	C654.517456,75.652184 651.068054,92.840691 662.439636,101.620636 
	C666.523743,104.773979 672.185974,105.848289 677.057251,108.029388 
	C680.292725,109.478050 684.791077,109.038017 685.998169,114.516083 
M619.000366,76.720993 
	C619.000366,95.102592 619.000366,113.484192 619.000366,131.999374 
	C624.294495,131.999374 628.808289,132.253601 633.260925,131.843491 
	C634.586182,131.721436 636.778931,129.755737 636.802002,128.599472 
	C636.943848,121.470840 637.008301,114.286453 636.256042,107.210159 
	C635.567932,100.737495 637.607910,95.185013 640.696716,89.996353 
	C643.091858,85.973091 647.676941,87.229523 651.562439,86.874664 
	C652.771423,86.764252 654.529419,85.420120 654.860413,84.294952 
	C655.864685,80.880844 656.620605,77.311028 656.766846,73.772667 
	C656.816956,72.560768 654.909607,70.330833 653.672668,70.156677 
	C646.283447,69.116364 639.619568,70.537849 635.088379,77.740341 
	C636.247803,71.594742 633.216003,70.343773 628.315735,70.969543 
	C626.842102,71.157730 625.308411,71.138054 623.829529,70.971443 
	C620.141418,70.555954 618.488586,72.041428 619.000366,76.720993 
M369.596313,86.976288 
	C371.234680,86.976288 372.873016,86.976288 374.565399,86.976288 
	C375.407257,83.025452 376.551605,79.416161 376.800598,75.746140 
	C376.925751,73.901367 375.566010,70.387833 374.633453,70.302620 
	C369.829224,69.863640 364.706940,68.995865 360.558655,72.824402 
	C358.986755,74.275131 357.279907,75.579651 355.252106,77.269554 
	C355.054108,74.935379 354.905579,73.184166 354.747070,71.315285 
	C349.764832,71.315285 345.040497,71.315285 340.345184,71.315285 
	C340.345184,91.677216 340.345184,111.721397 340.345184,131.608917 
	C346.089081,131.608917 351.481354,131.608917 357.000031,131.608917 
	C357.000031,121.397263 356.944458,111.576256 357.016693,101.756187 
	C357.080414,93.092476 361.850220,87.146240 369.596313,86.976288 
z"/>
<path fill="#8FC74A" opacity="1.000000" stroke="none" 
	d="
M111.531342,1.000001 
	C121.007072,4.170273 130.576523,6.280651 138.917496,10.706319 
	C165.679413,24.906044 182.391464,46.942535 188.064148,77.087105 
	C192.075500,98.403397 189.190018,118.735825 178.955795,137.629211 
	C164.815170,163.734238 143.281570,180.495728 113.658546,186.006775 
	C110.921127,186.516052 108.152908,186.859818 105.199493,187.640213 
	C98.645599,188.000000 92.291206,188.000000 85.269119,187.640335 
	C77.745628,185.831558 70.624138,185.124329 64.087685,182.783478 
	C49.112480,177.420532 36.006279,169.065430 25.298380,156.947388 
	C16.572550,147.072449 9.799295,136.221420 5.951981,123.658516 
	C3.975747,117.205376 2.630431,110.559036 1.000001,104.000000 
	C1.000000,97.645599 1.000000,91.291206 1.359804,84.268982 
	C2.143863,80.690430 2.400710,77.743645 3.018342,74.874542 
	C9.001115,47.082542 24.361042,25.894054 49.143848,12.198710 
	C58.092621,7.253487 68.343376,4.664310 78.000000,1.000000 
	C89.020897,1.000000 100.041786,1.000000 111.531342,1.000001 
M76.500168,84.941505 
	C93.497108,84.940857 110.494232,84.985550 127.490875,84.914322 
	C133.232254,84.890259 137.007034,81.527351 136.978745,76.825569 
	C136.948807,71.851738 133.560776,69.011940 127.513443,68.956688 
	C123.422180,68.919304 119.330292,68.949562 115.353424,68.949562 
	C114.841255,63.477051 114.566895,58.835999 113.946945,54.241577 
	C112.076515,40.379963 100.730072,29.492949 87.762337,28.951796 
	C69.310883,28.181803 58.053719,35.243877 55.219860,51.337166 
	C53.480423,61.215275 54.157841,71.543976 54.172009,81.669754 
	C54.173542,82.761520 56.935120,84.681786 58.513580,84.789154 
	C64.153175,85.172775 69.834663,84.940590 76.500168,84.941505 
M133.452805,145.962509 
	C134.298096,145.161392 135.594254,144.500946 135.897064,143.530548 
	C136.578232,141.347656 137.719360,138.592209 136.944382,136.830185 
	C135.608963,133.793884 132.412506,133.996872 129.574265,135.276215 
	C128.522324,135.750397 127.595650,136.494522 126.573738,137.044754 
	C122.199089,139.400253 118.021049,142.326172 113.389221,143.962433 
	C95.498558,150.282547 78.739899,147.625168 63.306583,136.590759 
	C60.040344,134.255478 56.392551,132.842575 53.790737,136.905746 
	C51.461109,140.543854 53.919174,143.259415 56.929276,145.662109 
	C76.522362,161.301468 109.659508,163.497925 133.452805,145.962509 
M65.262924,105.920044 
	C65.630920,107.840668 65.697891,109.884460 66.423843,111.658615 
	C68.530266,116.806534 74.676834,118.751503 79.820091,116.106522 
	C84.666298,113.614296 87.040924,107.323494 83.850189,103.085213 
	C81.883224,100.472473 78.308319,97.847397 75.242607,97.568802 
	C70.541451,97.141579 66.942947,100.311539 65.262924,105.920044 
M107.781380,114.850166 
	C111.624039,117.827919 115.747620,118.030212 119.779388,115.535141 
	C123.578148,113.184288 124.734314,109.375114 123.938782,105.149437 
	C123.154633,100.984230 120.244972,98.575447 116.232071,97.697906 
	C112.133934,96.801720 108.632919,98.289261 106.317764,101.651550 
	C103.345428,105.968292 103.792297,110.345039 107.781380,114.850166 
z"/>
<path fill="#FEFEFE" opacity="000000" stroke="none" 
	d="
M1.000001,104.468658 
	C2.630431,110.559036 3.975747,117.205376 5.951981,123.658516 
	C9.799295,136.221420 16.572550,147.072449 25.298380,156.947388 
	C36.006279,169.065430 49.112480,177.420532 64.087685,182.783478 
	C70.624138,185.124329 77.745628,185.831558 84.800720,187.640335 
	C57.073097,188.000000 29.146198,188.000000 1.000000,188.000000 
	C1.000000,160.312820 1.000000,132.625076 1.000001,104.468658 
z"/>
<path fill="#FEFEFE" opacity="000000" stroke="none" 
	d="
M77.531342,1.000000 
	C68.343376,4.664310 58.092621,7.253487 49.143848,12.198710 
	C24.361042,25.894054 9.001115,47.082542 3.018342,74.874542 
	C2.400710,77.743645 2.143863,80.690430 1.359804,83.800583 
	C1.000000,56.409184 1.000000,28.818371 1.000000,1.000000 
	C26.353773,1.000000 51.708229,1.000000 77.531342,1.000000 
z"/>
<path fill="#626365" opacity="1.000000" stroke="none" 
	d="
M769.000000,70.550018 
	C766.383789,71.865379 763.510803,73.815536 761.227295,73.275131 
	C759.160034,72.785919 756.680054,69.738129 756.346436,67.522697 
	C756.054932,65.586433 758.074158,62.771297 759.829895,61.179863 
	C762.589233,58.678650 765.583374,60.239063 768.619019,62.044468 
	C769.000000,64.700012 769.000000,67.400032 769.000000,70.550018 
z"/>
<path fill="#606062" opacity="1.000000" stroke="none" 
	d="
M380.225830,83.438965 
	C387.414856,68.256180 405.104431,66.652702 414.909058,73.909805 
	C417.138306,71.517967 427.478638,69.596840 430.363403,71.322189 
	C431.240540,71.846786 431.925049,73.452522 431.929199,74.565979 
	C432.017456,98.211418 432.047180,121.857712 431.842010,145.501709 
	C431.831940,146.665604 429.589355,147.815384 428.368683,148.952789 
	C428.279327,149.036072 428.045685,148.967697 427.879242,148.964661 
	C412.111633,148.677307 415.373077,151.245071 415.007874,136.749741 
	C414.949219,134.421844 414.999634,132.091187 414.999634,129.463959 
	C412.039703,130.702332 409.371521,132.229828 406.500793,132.949829 
	C392.686157,136.414780 381.363861,130.034241 378.263550,116.203087 
	C375.844421,105.410934 375.639374,94.375183 380.225830,83.438965 
M409.796936,118.683167 
	C414.031219,115.608269 415.645477,111.602890 415.098389,106.295662 
	C414.623535,101.689445 415.011078,96.995476 414.996429,92.340363 
	C414.981171,87.477783 412.462769,84.515556 406.567139,83.323463 
	C402.460938,82.493195 399.192627,84.386963 397.393982,88.159187 
	C393.669952,95.969589 394.284637,104.186852 395.988312,112.275406 
	C397.554810,119.712753 401.826385,121.681358 409.796936,118.683167 
z"/>
<path fill="#606062" opacity="1.000000" stroke="none" 
	d="
M238.000092,116.028580 
	C238.000092,121.484573 238.000092,126.447227 238.000092,132.000076 
	C234.757507,132.000076 231.819962,132.000076 228.882401,132.000076 
	C226.092896,132.000076 223.303391,132.000076 220.168060,132.000076 
	C220.100800,130.493713 220.007919,129.377945 220.007507,128.262131 
	C219.998993,104.972832 220.083527,81.682953 219.922485,58.394768 
	C219.894485,54.344818 220.916962,52.616043 225.227341,52.946819 
	C236.054932,53.777733 247.068802,53.383190 257.702332,55.235126 
	C270.885376,57.531082 277.443695,67.014481 276.824921,80.305984 
	C276.181458,94.127007 269.439423,102.209267 255.336273,104.910233 
	C249.881531,105.954895 244.232590,105.985512 238.000092,106.537636 
	C238.000092,109.341339 238.000092,112.438286 238.000092,116.028580 
M255.570251,71.050415 
	C250.480881,66.297615 244.374420,66.862602 238.359283,67.208336 
	C238.359283,75.766556 238.359283,83.799179 238.359283,91.927391 
	C245.279770,92.039352 252.529556,93.248482 256.568085,86.561836 
	C259.320435,82.004700 259.083282,76.532143 255.570251,71.050415 
z"/>
<path fill="#606163" opacity="1.000000" stroke="none" 
	d="
M747.716919,131.979340 
	C736.443115,135.385178 726.093506,135.221390 716.441284,128.155594 
	C709.653687,123.186783 706.951660,116.022049 706.180115,108.345726 
	C705.150085,98.098129 706.056396,88.028427 712.877502,79.308266 
	C717.423889,73.496071 723.160095,70.518173 730.355774,70.003746 
	C739.264221,69.366882 747.890686,70.205711 753.489075,78.190132 
	C756.310913,82.214615 758.737732,86.949547 759.736145,91.700912 
	C760.802856,96.777573 759.976501,102.252007 759.976501,108.011353 
	C747.754639,108.011353 735.996887,108.011353 724.189819,108.011353 
	C725.923950,121.134254 733.957214,123.112976 751.163757,115.095810 
	C751.313965,115.155540 751.520203,115.171303 751.606323,115.281258 
	C759.473877,125.324867 761.846313,124.709305 747.716919,131.979340 
M724.054871,92.941101 
	C724.684570,93.635529 725.297546,94.914070 725.946594,94.932663 
	C731.519592,95.092400 737.099060,95.024376 742.621765,95.024376 
	C743.472595,86.521210 739.219177,82.007507 731.795044,83.009254 
	C726.459473,83.729210 725.882080,88.331841 724.054871,92.941101 
z"/>
<path fill="#606163" opacity="1.000000" stroke="none" 
	d="
M524.476868,133.968262 
	C519.015869,131.459106 513.251343,129.846848 509.139191,126.312225 
	C499.728058,118.222855 498.951019,106.808990 500.423187,95.488197 
	C501.627899,86.224434 505.144806,77.570915 514.178711,73.036018 
	C530.218567,64.984184 551.679016,70.846748 553.985168,93.360382 
	C554.469788,98.091393 554.603149,102.858383 554.919434,107.947502 
	C541.838196,107.947502 530.220459,107.947502 518.578918,107.947502 
	C519.896912,121.308609 527.687256,123.325737 545.699646,114.846893 
	C548.038574,117.985107 550.446533,121.215988 552.958923,124.586906 
	C545.187805,132.741913 535.452698,134.534683 524.476868,133.968262 
M525.579773,95.033943 
	C529.549072,95.033943 533.518372,95.033943 537.529480,95.033943 
	C535.678650,84.338753 534.347046,82.803352 527.268311,83.000465 
	C521.647766,83.156967 519.255981,86.233582 518.202393,95.033951 
	C520.374451,95.033951 522.497681,95.033951 525.579773,95.033943 
z"/>
<path fill="#606062" opacity="1.000000" stroke="none" 
	d="
M475.315582,72.567299 
	C480.709015,71.797302 485.899811,71.335945 491.097778,71.232109 
	C491.708832,71.219910 492.904449,73.170670 492.910522,74.216766 
	C493.021271,93.322594 492.991364,112.429253 492.991364,131.766144 
	C487.602203,131.766144 482.659454,131.766144 477.294403,131.766144 
	C477.156677,130.807571 477.002289,129.733002 476.805450,128.363037 
	C475.760925,128.830841 474.674713,129.120300 473.819092,129.732193 
	C467.843231,134.005569 461.424561,135.165100 454.295319,133.143341 
	C447.640289,131.256073 444.262726,126.562637 443.098297,120.231773 
	C442.300812,115.895851 442.115570,111.408745 442.054382,106.983727 
	C441.911560,96.659790 442.108398,86.331039 441.953003,76.007469 
	C441.900757,72.535500 442.683655,70.933823 446.633331,70.910622 
	C460.000854,70.832123 460.000000,70.686600 460.000000,84.234688 
	C460.000000,93.394775 459.967316,102.555031 460.015503,111.714859 
	C460.035736,115.564804 458.871918,120.181587 465.373077,120.035065 
	C470.615753,119.916901 474.929077,116.125282 474.972321,110.950012 
	C475.062775,100.125214 474.994568,89.299126 475.005127,78.473587 
	C475.006927,76.643379 475.076721,74.813248 475.315582,72.567299 
z"/>
<path fill="#606062" opacity="1.000000" stroke="none" 
	d="
M288.839294,85.940750 
	C281.887268,85.882240 284.326263,79.639359 282.253143,76.496994 
	C282.021729,76.146217 284.630402,72.969070 286.331024,72.454590 
	C295.722748,69.613335 305.406891,68.554108 314.992737,71.051186 
	C323.626495,73.300255 327.992889,79.663315 327.999207,88.434235 
	C328.005096,96.589279 327.693024,104.761589 328.149445,112.891006 
	C328.336273,116.218559 330.174530,119.453377 331.924438,122.529587 
	C330.572235,135.724487 329.015991,137.918900 315.005219,127.865349 
	C307.862183,133.356827 299.871063,135.552811 290.754639,133.048828 
	C283.449219,131.042267 278.558167,124.558174 277.903687,116.977715 
	C276.456421,100.215012 287.912994,94.810463 300.845734,94.028145 
	C303.981445,93.838463 307.138397,93.999939 310.228638,93.999939 
	C312.053467,86.346695 307.468109,81.582626 300.156311,83.274757 
	C296.516449,84.117119 292.891022,85.021927 288.839294,85.940750 
M310.996918,107.639442 
	C310.668182,106.795372 310.395172,105.246216 310.002258,105.215179 
	C305.578552,104.865852 300.991150,104.345001 297.480530,107.959473 
	C294.636292,110.887817 293.879272,114.314812 296.373352,117.813110 
	C298.718719,121.102821 301.821045,121.349686 305.504333,119.861137 
	C310.891235,117.684074 311.593262,113.500549 310.996918,107.639442 
z"/>
<path fill="#606062" opacity="1.000000" stroke="none" 
	d="
M564.329529,129.822205 
	C557.156067,123.233330 555.237000,115.552811 558.661499,106.915779 
	C562.159973,98.091988 569.765015,94.911293 578.524048,94.064957 
	C582.460449,93.684608 586.464172,94.000557 590.374573,94.000557 
	C591.724121,86.185150 587.625793,81.819275 580.284973,83.076202 
	C576.773926,83.677383 573.301636,84.572136 569.866516,85.530151 
	C566.763794,86.395493 564.330872,86.558281 563.706848,82.431618 
	C563.445679,80.704010 562.176086,79.081581 562.117615,77.385384 
	C562.069580,75.990959 562.800232,73.628548 563.756470,73.285339 
	C573.996460,69.610176 584.598267,68.419312 595.184326,71.197739 
	C604.200073,73.563980 607.641418,80.406448 607.934387,88.764076 
	C608.231567,97.242615 607.916992,105.741135 608.064575,114.227516 
	C608.097412,116.113266 608.511719,118.263008 609.505127,119.804977 
	C611.562500,122.998558 611.806274,130.196152 609.478210,132.968948 
	C608.030457,134.693283 601.748779,133.677444 598.637756,131.041199 
	C597.254822,129.869293 596.164612,128.351852 594.935425,126.984512 
	C587.764709,134.500381 574.333862,136.970703 564.329529,129.822205 
M582.967957,120.533066 
	C590.805115,118.027687 592.237305,115.101479 590.416565,105.314308 
	C580.884949,104.419952 575.741272,106.563309 575.010864,111.733902 
	C574.210022,117.402885 575.887207,119.525719 582.967957,120.533066 
z"/>
<path fill="#606163" opacity="1.000000" stroke="none" 
	d="
M685.995239,114.113617 
	C684.791077,109.038017 680.292725,109.478050 677.057251,108.029388 
	C672.185974,105.848289 666.523743,104.773979 662.439636,101.620636 
	C651.068054,92.840691 654.517456,75.652184 668.702026,71.397392 
	C678.919739,68.332497 689.460999,68.522240 698.988586,74.944221 
	C701.872437,76.888062 703.099670,78.471230 700.244324,81.502869 
	C698.398743,83.462418 697.136230,85.971207 695.812744,87.936432 
	C691.442139,86.272858 687.690857,84.781113 683.886963,83.438522 
	C682.830139,83.065514 681.439392,82.701958 680.509949,83.083824 
	C677.942139,84.138847 675.536987,85.589958 673.067566,86.884468 
	C674.787598,88.607803 676.212158,90.962318 678.284729,91.932602 
	C683.839844,94.533218 689.846130,96.183083 695.359192,98.857773 
	C707.311523,104.656433 707.468567,123.293533 694.024475,130.516296 
	C682.594666,136.656876 661.135864,134.868408 652.836182,124.285339 
	C655.007935,121.594246 656.994202,118.547203 659.610291,116.203094 
	C660.550110,115.361023 663.358154,115.611282 664.708618,116.399513 
	C669.434937,119.158325 674.333557,120.393799 679.798950,120.058777 
	C683.530579,119.830032 685.630615,118.266930 685.995239,114.113617 
z"/>
<path fill="#616163" opacity="1.000000" stroke="none" 
	d="
M619.000488,76.248520 
	C618.488586,72.041428 620.141418,70.555954 623.829529,70.971443 
	C625.308411,71.138054 626.842102,71.157730 628.315735,70.969543 
	C633.216003,70.343773 636.247803,71.594742 635.088379,77.740341 
	C639.619568,70.537849 646.283447,69.116364 653.672668,70.156677 
	C654.909607,70.330833 656.816956,72.560768 656.766846,73.772667 
	C656.620605,77.311028 655.864685,80.880844 654.860413,84.294952 
	C654.529419,85.420120 652.771423,86.764252 651.562439,86.874664 
	C647.676941,87.229523 643.091858,85.973091 640.696716,89.996353 
	C637.607910,95.185013 635.567932,100.737495 636.256042,107.210159 
	C637.008301,114.286453 636.943848,121.470840 636.802002,128.599472 
	C636.778931,129.755737 634.586182,131.721436 633.260925,131.843491 
	C628.808289,132.253601 624.294495,131.999374 619.000366,131.999374 
	C619.000366,113.484192 619.000366,95.102592 619.000488,76.248520 
z"/>
<path fill="#606062" opacity="1.000000" stroke="none" 
	d="
M369.153229,86.968781 
	C361.850220,87.146240 357.080414,93.092476 357.016693,101.756187 
	C356.944458,111.576256 357.000031,121.397263 357.000031,131.608917 
	C351.481354,131.608917 346.089081,131.608917 340.345184,131.608917 
	C340.345184,111.721397 340.345184,91.677216 340.345184,71.315285 
	C345.040497,71.315285 349.764832,71.315285 354.747070,71.315285 
	C354.905579,73.184166 355.054108,74.935379 355.252106,77.269554 
	C357.279907,75.579651 358.986755,74.275131 360.558655,72.824402 
	C364.706940,68.995865 369.829224,69.863640 374.633453,70.302620 
	C375.566010,70.387833 376.925751,73.901367 376.800598,75.746140 
	C376.551605,79.416161 375.407257,83.025452 374.565399,86.976288 
	C372.873016,86.976288 371.234680,86.976288 369.153229,86.968781 
z"/>
<path fill="#616263" opacity="1.000000" stroke="none" 
	d="
M76.000229,84.941452 
	C69.834663,84.940590 64.153175,85.172775 58.513580,84.789154 
	C56.935120,84.681786 54.173542,82.761520 54.172009,81.669754 
	C54.157841,71.543976 53.480423,61.215275 55.219860,51.337166 
	C58.053719,35.243877 69.310883,28.181803 87.762337,28.951796 
	C100.730072,29.492949 112.076515,40.379963 113.946945,54.241577 
	C114.566895,58.835999 114.841255,63.477051 115.353424,68.949562 
	C119.330292,68.949562 123.422180,68.919304 127.513443,68.956688 
	C133.560776,69.011940 136.948807,71.851738 136.978745,76.825569 
	C137.007034,81.527351 133.232254,84.890259 127.490875,84.914322 
	C110.494232,84.985550 93.497108,84.940857 76.000229,84.941452 
M95.524132,48.890739 
	C88.866913,44.041168 80.075211,43.541222 73.681618,48.230259 
	C66.742607,53.319309 66.803131,60.798660 67.291397,68.637650 
	C78.639702,68.637650 89.503357,68.637650 100.715630,68.637650 
	C101.112221,61.519154 101.743462,54.744617 95.524132,48.890739 
z"/>
<path fill="#626263" opacity="1.000000" stroke="none" 
	d="
M133.166565,146.187866 
	C109.659508,163.497925 76.522362,161.301468 56.929276,145.662109 
	C53.919174,143.259415 51.461109,140.543854 53.790737,136.905746 
	C56.392551,132.842575 60.040344,134.255478 63.306583,136.590759 
	C78.739899,147.625168 95.498558,150.282547 113.389221,143.962433 
	C118.021049,142.326172 122.199089,139.400253 126.573738,137.044754 
	C127.595650,136.494522 128.522324,135.750397 129.574265,135.276215 
	C132.412506,133.996872 135.608963,133.793884 136.944382,136.830185 
	C137.719360,138.592209 136.578232,141.347656 135.897064,143.530548 
	C135.594254,144.500946 134.298096,145.161392 133.166565,146.187866 
z"/>
<path fill="#616263" opacity="1.000000" stroke="none" 
	d="
M65.390350,105.560257 
	C66.942947,100.311539 70.541451,97.141579 75.242607,97.568802 
	C78.308319,97.847397 81.883224,100.472473 83.850189,103.085213 
	C87.040924,107.323494 84.666298,113.614296 79.820091,116.106522 
	C74.676834,118.751503 68.530266,116.806534 66.423843,111.658615 
	C65.697891,109.884460 65.630920,107.840668 65.390350,105.560257 
z"/>
<path fill="#616263" opacity="1.000000" stroke="none" 
	d="
M107.476151,114.616379 
	C103.792297,110.345039 103.345428,105.968292 106.317764,101.651550 
	C108.632919,98.289261 112.133934,96.801720 116.232071,97.697906 
	C120.244972,98.575447 123.154633,100.984230 123.938782,105.149437 
	C124.734314,109.375114 123.578148,113.184288 119.779388,115.535141 
	C115.747620,118.030212 111.624039,117.827919 107.476151,114.616379 
z"/>
<path fill="#FEFEFE" opacity="000000" stroke="none" 
	d="
M409.431274,118.835617 
	C401.826385,121.681358 397.554810,119.712753 395.988312,112.275406 
	C394.284637,104.186852 393.669952,95.969589 397.393982,88.159187 
	C399.192627,84.386963 402.460938,82.493195 406.567139,83.323463 
	C412.462769,84.515556 414.981171,87.477783 414.996429,92.340363 
	C415.011078,96.995476 414.623535,101.689445 415.098389,106.295662 
	C415.645477,111.602890 414.031219,115.608269 409.431274,118.835617 
z"/>
<path fill="#FEFEFE" opacity="000000" stroke="none" 
	d="
M255.837265,71.345749 
	C259.083282,76.532143 259.320435,82.004700 256.568085,86.561836 
	C252.529556,93.248482 245.279770,92.039352 238.359283,91.927391 
	C238.359283,83.799179 238.359283,75.766556 238.359283,67.208336 
	C244.374420,66.862602 250.480881,66.297615 255.837265,71.345749 
z"/>
<path fill="#FEFEFE" opacity="000000" stroke="none" 
	d="
M724.199158,92.545166 
	C725.882080,88.331841 726.459473,83.729210 731.795044,83.009254 
	C739.219177,82.007507 743.472595,86.521210 742.621765,95.024376 
	C737.099060,95.024376 731.519592,95.092400 725.946594,94.932663 
	C725.297546,94.914070 724.684570,93.635529 724.199158,92.545166 
z"/>
<path fill="#FEFEFE" opacity="000000" stroke="none" 
	d="
M525.100342,95.033951 
	C522.497681,95.033951 520.374451,95.033951 518.202393,95.033951 
	C519.255981,86.233582 521.647766,83.156967 527.268311,83.000465 
	C534.347046,82.803352 535.678650,84.338753 537.529480,95.033943 
	C533.518372,95.033943 529.549072,95.033943 525.100342,95.033951 
z"/>
<path fill="#FEFEFE" opacity="000000" stroke="none" 
	d="
M310.997986,108.098495 
	C311.593262,113.500549 310.891235,117.684074 305.504333,119.861137 
	C301.821045,121.349686 298.718719,121.102821 296.373352,117.813110 
	C293.879272,114.314812 294.636292,110.887817 297.480530,107.959473 
	C300.991150,104.345001 305.578552,104.865852 310.002258,105.215179 
	C310.395172,105.246216 310.668182,106.795372 310.997986,108.098495 
z"/>
<path fill="#FEFEFE" opacity="000000" stroke="none" 
	d="
M582.620239,120.729210 
	C575.887207,119.525719 574.210022,117.402885 575.010864,111.733902 
	C575.741272,106.563309 580.884949,104.419952 590.416565,105.314308 
	C592.237305,115.101479 590.805115,118.027687 582.620239,120.729210 
z"/>
<path fill="#8FC44D" opacity="1.000000" stroke="none" 
	d="
M95.795029,49.147514 
	C101.743462,54.744617 101.112221,61.519154 100.715630,68.637650 
	C89.503357,68.637650 78.639702,68.637650 67.291397,68.637650 
	C66.803131,60.798660 66.742607,53.319309 73.681618,48.230259 
	C80.075211,43.541222 88.866913,44.041168 95.795029,49.147514 
z"/>
</svg>